<svg xmlns="http://www.w3.org/2000/svg" xmlns:xlink="http://www.w3.org/1999/xlink" width="122" height="83.626" viewBox="0 0 122 83.626"><defs><linearGradient id="linear-gradient" x1="0.017" y1="0.541" x2="1" y2="0.537" gradientUnits="objectBoundingBox"><stop offset="0" stop-color="#0a46cb"></stop><stop offset="1" stop-color="#147af7"></stop></linearGradient><clipPath id="clip-path"><path id="Caminho_8312" data-name="Caminho 8312" d="M128.237,153.945l41.8-.5a.549.549,0,0,1,.591.491.542.542,0,0,1-.575.505h-.016Zm0-31.729a.543.543,0,0,1,.575-.505h.016l41.8.5-41.8.5h-.008a.547.547,0,0,1-.583-.492m29.571-21.1a22.924,22.924,0,0,0-10.642,5.29,20.364,20.364,0,0,0-33.238,8.583A24.019,24.019,0,0,0,88.451,138.08l24.448.513-24.464.513a24.014,24.014,0,0,0,28.6,23.435,28.037,28.037,0,0,0,36.68,4.815,23.605,23.605,0,0,0,30.188-4.509A24.03,24.03,0,0,0,209.384,146l-19.035.387c-.223,0-.406-.255-.409-.579s.175-.591.4-.6h.011l19.148.389a23.839,23.839,0,0,0,.742-3.62l-20.3-.413,20.39-.414c.066-.723.1-1.454.1-2.193,0-.722-.038-1.434-.1-2.139l-19.985.406c-.223,0-.406-.255-.409-.579s.175-.591.4-.6h.011l19.955.405a23.858,23.858,0,0,0-.848-4.28l-19.516-.4,19.268-.392a24.005,24.005,0,0,0-25.425-16.3,23.01,23.01,0,0,0-25.977-13.978" transform="translate(-88.435 -100.647)" fill="url(#linear-gradient)"></path></clipPath></defs><g id="Grupo_1607" data-name="Grupo 1607" transform="translate(-142 -8039.552)"><g id="Grupo_1577" data-name="Grupo 1577" transform="translate(53.565 7938.905)"><g id="Grupo_1578" data-name="Grupo 1578" transform="translate(88.435 100.647)"><g id="Grupo_1577-2" data-name="Grupo 1577" transform="translate(0 0)" clip-path="url(#clip-path)"><rect id="Ret&#xE2;ngulo_413" data-name="Ret&#xE2;ngulo 413" width="122" height="71.448" transform="translate(0 0)" fill="url(#linear-gradient)"></rect></g></g><g id="Grupo_1579" data-name="Grupo 1579" transform="translate(124.453 129.786)"><path id="Caminho_8313" data-name="Caminho 8313" d="M219.784,200.561a7.826,7.826,0,0,1,5.735,2.286,7.928,7.928,0,0,1-5.612,13.555,7.72,7.72,0,0,1-5.663-2.3,7.55,7.55,0,0,1-2.308-5.557,8.038,8.038,0,0,1,1.051-4.029,7.768,7.768,0,0,1,6.8-3.958Zm.066,1.466a6.439,6.439,0,0,0-5.515,3.222,6.534,6.534,0,0,0-.842,3.294,6.344,6.344,0,0,0,6.357,6.393,6.455,6.455,0,0,0,3.25-.852,6.1,6.1,0,0,0,2.331-2.329,6.546,6.546,0,0,0,.837-3.284,6.385,6.385,0,0,0-.837-3.248,6.253,6.253,0,0,0-2.357-2.324A6.378,6.378,0,0,0,219.85,202.027Z" transform="translate(-211.935 -200.561)" fill="#fff"></path><path id="Caminho_8314" data-name="Caminho 8314" d="M279.723,201.861l7.034,15.082h-1.628l-2.372-4.962h-6.5l-2.349,4.962h-1.681l7.126-15.082Zm-.19,3.2-2.584,5.459H282.1Z" transform="translate(-254.644 -201.482)" fill="#fff"></path><path id="Caminho_8315" data-name="Caminho 8315" d="M329.321,201.861h1.507v15.082h-1.507Z" transform="translate(-295.086 -201.482)" fill="#fff"></path><path id="Caminho_8316" data-name="Caminho 8316" d="M340.993,213.213l1.282-.769q1.353,2.491,3.127,2.491a3,3,0,0,0,1.425-.354,2.5,2.5,0,0,0,1.015-.948,2.457,2.457,0,0,0,.349-1.261,2.557,2.557,0,0,0-.513-1.487,12.28,12.28,0,0,0-2.584-2.42,13.2,13.2,0,0,1-2.348-2.061,3.769,3.769,0,0,1-.8-2.307,3.5,3.5,0,0,1,.472-1.794,3.366,3.366,0,0,1,1.328-1.277,3.827,3.827,0,0,1,1.861-.466,3.966,3.966,0,0,1,1.994.528,6.844,6.844,0,0,1,1.964,1.943l-1.23.933a5.9,5.9,0,0,0-1.451-1.487,2.5,2.5,0,0,0-1.307-.359,2.07,2.07,0,0,0-1.492.554,1.812,1.812,0,0,0-.579,1.364,2.323,2.323,0,0,0,.205.953,3.511,3.511,0,0,0,.748,1q.3.287,1.948,1.507a10.965,10.965,0,0,1,2.686,2.574,4.147,4.147,0,0,1,.728,2.266,3.846,3.846,0,0,1-1.246,2.851,4.187,4.187,0,0,1-3.03,1.21,4.444,4.444,0,0,1-2.491-.733A6.7,6.7,0,0,1,340.993,213.213Z" transform="translate(-303.354 -200.561)" fill="#fff"></path></g></g><g id="Grupo_1600" data-name="Grupo 1600" transform="translate(149 8116.141)"><path id="Caminho_8358" data-name="Caminho 8358" d="M357.116,595.365h1.036l2.063,5.353h-1.061l-.42-1.1h-2.189l-.436,1.1h-1.061Zm.524,1.419-.72,1.838h1.435Z" transform="translate(-355.047 -595.129)" fill="#007cf8"></path><path id="Caminho_8359" data-name="Caminho 8359" d="M370.987,599h1v.406a2.4,2.4,0,0,1,.614-.4,1.481,1.481,0,0,1,.563-.111,1.364,1.364,0,0,1,1,.411,1.41,1.41,0,0,1,.346,1.033v2.616h-.985v-1.734a4.4,4.4,0,0,0-.063-.941.645.645,0,0,0-.222-.354.622.622,0,0,0-.391-.122.736.736,0,0,0-.519.2,1.079,1.079,0,0,0-.3.558,4.5,4.5,0,0,0-.044.8v1.588h-1Z" transform="translate(-365.139 -597.366)" fill="#007cf8"></path><path id="Caminho_8360" data-name="Caminho 8360" d="M382,599.172h1.017l1.031,2.484,1.137-2.484h1.02l-2.485,5.408H382.7l.816-1.744Z" transform="translate(-372.113 -597.542)" fill="#007cf8"></path><path id="Caminho_8361" data-name="Caminho 8361" d="M403.322,595h1v5.487h-1v-.418a1.958,1.958,0,0,1-.585.4,1.637,1.637,0,0,1-.635.122,1.769,1.769,0,0,1-1.33-.595,2.074,2.074,0,0,1-.561-1.479,2.124,2.124,0,0,1,.543-1.5,1.729,1.729,0,0,1,1.319-.586,1.673,1.673,0,0,1,.67.135,1.835,1.835,0,0,1,.579.4Zm-1.047,2.344a1.007,1.007,0,0,0-.767.325,1.3,1.3,0,0,0,.005,1.68,1.009,1.009,0,0,0,.765.331,1.027,1.027,0,0,0,.778-.326,1.189,1.189,0,0,0,.309-.853,1.155,1.155,0,0,0-.309-.837A1.04,1.04,0,0,0,402.276,597.341Z" transform="translate(-383.641 -594.895)" fill="#007cf8"></path><path id="Caminho_8362" data-name="Caminho 8362" d="M416.762,599h1v3.959h-1v-.418a1.956,1.956,0,0,1-.585.4,1.64,1.64,0,0,1-.636.122,1.768,1.768,0,0,1-1.33-.595,2.072,2.072,0,0,1-.561-1.479,2.122,2.122,0,0,1,.543-1.5,1.73,1.73,0,0,1,1.319-.586,1.673,1.673,0,0,1,.67.135,1.826,1.826,0,0,1,.579.4Zm-1.046.815a1.008,1.008,0,0,0-.767.326,1.3,1.3,0,0,0,.005,1.679,1.008,1.008,0,0,0,.765.331,1.027,1.027,0,0,0,.778-.326,1.188,1.188,0,0,0,.309-.853,1.153,1.153,0,0,0-.309-.837A1.04,1.04,0,0,0,415.716,599.811Z" transform="translate(-392.15 -597.366)" fill="#007cf8"></path><path id="Caminho_8363" data-name="Caminho 8363" d="M427.035,595.186h1v1.459h.591v.855h-.591v3.1h-1v-3.1h-.511v-.855h.511Z" transform="translate(-400.3 -595.015)" fill="#007cf8"></path><path id="Caminho_8364" data-name="Caminho 8364" d="M436.3,599h1v3.959h-1v-.418a1.956,1.956,0,0,1-.584.4,1.64,1.64,0,0,1-.636.122,1.768,1.768,0,0,1-1.33-.595,2.072,2.072,0,0,1-.561-1.479,2.123,2.123,0,0,1,.543-1.5,1.731,1.731,0,0,1,1.319-.586,1.673,1.673,0,0,1,.67.135,1.826,1.826,0,0,1,.579.4Zm-1.047.815a1.008,1.008,0,0,0-.767.326,1.3,1.3,0,0,0,.005,1.679,1.008,1.008,0,0,0,.765.331,1.027,1.027,0,0,0,.778-.326,1.188,1.188,0,0,0,.309-.853,1.153,1.153,0,0,0-.309-.837A1.04,1.04,0,0,0,435.258,599.811Z" transform="translate(-404.522 -597.366)" fill="#007cf8"></path><path id="Caminho_8365" data-name="Caminho 8365" d="M447.25,607.234l.711.357-.9,1.536-.5-.236Z" transform="translate(-412.987 -602.653)" fill="#007cf8"></path><path id="Caminho_8366" data-name="Caminho 8366" d="M461.136,599h1v3.959h-1v-.418a1.953,1.953,0,0,1-.584.4,1.641,1.641,0,0,1-.636.122,1.768,1.768,0,0,1-1.33-.595,2.074,2.074,0,0,1-.561-1.479,2.122,2.122,0,0,1,.543-1.5,1.73,1.73,0,0,1,1.319-.586,1.676,1.676,0,0,1,.67.135,1.829,1.829,0,0,1,.579.4Zm-1.046.815a1.009,1.009,0,0,0-.767.326,1.3,1.3,0,0,0,.005,1.679,1.008,1.008,0,0,0,.765.331,1.028,1.028,0,0,0,.778-.326,1.189,1.189,0,0,0,.309-.853,1.155,1.155,0,0,0-.309-.837A1.041,1.041,0,0,0,460.09,599.811Z" transform="translate(-420.243 -597.366)" fill="#007cf8"></path><path id="Caminho_8367" data-name="Caminho 8367" d="M471.962,599h1v.406a2.392,2.392,0,0,1,.613-.4,1.483,1.483,0,0,1,.563-.111,1.362,1.362,0,0,1,1,.411,1.41,1.41,0,0,1,.346,1.033v2.616H474.5v-1.734a4.4,4.4,0,0,0-.063-.941.645.645,0,0,0-.222-.354.622.622,0,0,0-.391-.122.734.734,0,0,0-.518.2,1.073,1.073,0,0,0-.3.558,4.468,4.468,0,0,0-.044.8v1.588h-1Z" transform="translate(-429.067 -597.366)" fill="#007cf8"></path><path id="Caminho_8368" data-name="Caminho 8368" d="M482.979,599.172H484l1.031,2.484,1.137-2.484h1.02L484.7,604.58h-1.028l.816-1.744Z" transform="translate(-436.042 -597.542)" fill="#007cf8"></path><path id="Caminho_8369" data-name="Caminho 8369" d="M495.435,595.186h1v1.459h.591v.855h-.591v3.1h-1v-3.1h-.511v-.855h.511Z" transform="translate(-443.604 -595.015)" fill="#007cf8"></path><path id="Caminho_8370" data-name="Caminho 8370" d="M502.058,594.719a.609.609,0,0,1,.449.189.628.628,0,0,1,.187.458.62.62,0,0,1-.185.453.6.6,0,0,1-.444.187.612.612,0,0,1-.453-.191.638.638,0,0,1-.187-.464.634.634,0,0,1,.633-.633Zm-.5,1.63h1v3.959h-1Z" transform="translate(-447.72 -594.719)" fill="#007cf8"></path><path id="Caminho_8371" data-name="Caminho 8371" d="M506.952,599h1v.455a1.7,1.7,0,0,1,.568-.418,1.659,1.659,0,0,1,.681-.138,1.266,1.266,0,0,1,.672.182,1.319,1.319,0,0,1,.482.531,1.6,1.6,0,0,1,.582-.531,1.588,1.588,0,0,1,.754-.182,1.4,1.4,0,0,1,.744.2,1.136,1.136,0,0,1,.462.513,2.738,2.738,0,0,1,.141,1.03v2.322h-1v-2.009a1.713,1.713,0,0,0-.168-.912.575.575,0,0,0-.5-.238.765.765,0,0,0-.458.146.86.86,0,0,0-.3.4,2.5,2.5,0,0,0-.1.824v1.786h-1v-1.917a2.707,2.707,0,0,0-.078-.77.7.7,0,0,0-.236-.355.621.621,0,0,0-.38-.116.75.75,0,0,0-.451.148.878.878,0,0,0-.3.413,2.545,2.545,0,0,0-.1.837v1.761h-1Z" transform="translate(-451.219 -597.366)" fill="#007cf8"></path><path id="Caminho_8372" data-name="Caminho 8372" d="M529.761,601.263h-3.2a1.063,1.063,0,0,0,.371.671,1.162,1.162,0,0,0,.768.249,1.33,1.33,0,0,0,.959-.389l.839.393a1.979,1.979,0,0,1-.751.657,2.352,2.352,0,0,1-1.039.213,2.055,2.055,0,0,1-1.521-.588A2,2,0,0,1,525.6,601a2.064,2.064,0,0,1,.586-1.5,1.968,1.968,0,0,1,1.468-.6,2.042,2.042,0,0,1,1.524.6,2.161,2.161,0,0,1,.587,1.581Zm-1-.782a.994.994,0,0,0-.389-.538,1.129,1.129,0,0,0-.674-.208,1.193,1.193,0,0,0-.73.233,1.294,1.294,0,0,0-.366.513Z" transform="translate(-463.025 -597.366)" fill="#007cf8"></path><path id="Caminho_8373" data-name="Caminho 8373" d="M539.259,607.234l.711.357-.9,1.536-.5-.236Z" transform="translate(-471.239 -602.653)" fill="#007cf8"></path><path id="Caminho_8374" data-name="Caminho 8374" d="M553.145,599h1v3.959h-1v-.418a1.958,1.958,0,0,1-.585.4,1.64,1.64,0,0,1-.636.122,1.769,1.769,0,0,1-1.33-.595,2.074,2.074,0,0,1-.561-1.479,2.124,2.124,0,0,1,.543-1.5,1.73,1.73,0,0,1,1.319-.586,1.675,1.675,0,0,1,.67.135,1.835,1.835,0,0,1,.579.4Zm-1.047.815a1.008,1.008,0,0,0-.767.326,1.3,1.3,0,0,0,.006,1.679,1.008,1.008,0,0,0,.765.331,1.028,1.028,0,0,0,.778-.326,1.189,1.189,0,0,0,.309-.853,1.155,1.155,0,0,0-.309-.837A1.041,1.041,0,0,0,552.1,599.811Z" transform="translate(-478.495 -597.366)" fill="#007cf8"></path><path id="Caminho_8375" data-name="Caminho 8375" d="M563.971,599h1v.406a2.4,2.4,0,0,1,.614-.4,1.483,1.483,0,0,1,.563-.111,1.363,1.363,0,0,1,1,.411,1.41,1.41,0,0,1,.346,1.033v2.616h-.984v-1.734a4.383,4.383,0,0,0-.064-.941.643.643,0,0,0-.222-.354.622.622,0,0,0-.391-.122.734.734,0,0,0-.518.2,1.075,1.075,0,0,0-.3.558,4.453,4.453,0,0,0-.044.8v1.588h-1Z" transform="translate(-487.318 -597.366)" fill="#007cf8"></path><path id="Caminho_8376" data-name="Caminho 8376" d="M574.988,599.172h1.018l1.031,2.484,1.137-2.484h1.02l-2.485,5.408H575.68l.816-1.744Z" transform="translate(-494.293 -597.542)" fill="#007cf8"></path><path id="Caminho_8377" data-name="Caminho 8377" d="M586.8,599.172h.975l.8,2.252.858-2.252h.6l.843,2.227.8-2.227h.981l-1.448,3.959h-.631l-.846-2.256-.871,2.256h-.624Z" transform="translate(-501.771 -597.542)" fill="#007cf8"></path><path id="Caminho_8378" data-name="Caminho 8378" d="M604.289,595h.988v1.929a2.26,2.26,0,0,1,.587-.377,1.515,1.515,0,0,1,.6-.126,1.349,1.349,0,0,1,1,.407,1.421,1.421,0,0,1,.346,1.037v2.616h-.981v-1.736a4.285,4.285,0,0,0-.066-.932.651.651,0,0,0-.224-.364.632.632,0,0,0-.392-.12.739.739,0,0,0-.52.2,1.062,1.062,0,0,0-.3.546,4.54,4.54,0,0,0-.044.815v1.59h-.988Z" transform="translate(-512.844 -594.895)" fill="#007cf8"></path><path id="Caminho_8379" data-name="Caminho 8379" d="M620.15,601.263h-3.2a1.061,1.061,0,0,0,.37.671,1.162,1.162,0,0,0,.767.249,1.33,1.33,0,0,0,.959-.389l.839.393a1.983,1.983,0,0,1-.751.657,2.352,2.352,0,0,1-1.039.213,2.055,2.055,0,0,1-1.521-.588,2,2,0,0,1-.587-1.472,2.064,2.064,0,0,1,.586-1.5,1.968,1.968,0,0,1,1.468-.6,2.042,2.042,0,0,1,1.524.6,2.161,2.161,0,0,1,.587,1.581Zm-1-.782a.994.994,0,0,0-.389-.538,1.129,1.129,0,0,0-.674-.208,1.2,1.2,0,0,0-.731.233,1.3,1.3,0,0,0-.365.513Z" transform="translate(-520.251 -597.366)" fill="#007cf8"></path><path id="Caminho_8380" data-name="Caminho 8380" d="M628.892,599h.853v.5a1.065,1.065,0,0,1,.368-.448.89.89,0,0,1,.5-.153.937.937,0,0,1,.405.1l-.31.855a.688.688,0,0,0-.288-.087.456.456,0,0,0-.389.284,2.594,2.594,0,0,0-.159,1.114l0,.193v1.6h-.988Z" transform="translate(-528.42 -597.366)" fill="#007cf8"></path><path id="Caminho_8381" data-name="Caminho 8381" d="M639.693,601.263h-3.2a1.062,1.062,0,0,0,.37.671,1.164,1.164,0,0,0,.768.249,1.33,1.33,0,0,0,.959-.389l.839.393a1.978,1.978,0,0,1-.751.657,2.352,2.352,0,0,1-1.039.213,2.055,2.055,0,0,1-1.521-.588,2,2,0,0,1-.587-1.472,2.066,2.066,0,0,1,.585-1.5,1.97,1.97,0,0,1,1.468-.6,2.042,2.042,0,0,1,1.524.6,2.161,2.161,0,0,1,.587,1.581Zm-1-.782a.993.993,0,0,0-.389-.538,1.129,1.129,0,0,0-.674-.208,1.2,1.2,0,0,0-.731.233,1.3,1.3,0,0,0-.365.513Z" transform="translate(-532.624 -597.366)" fill="#007cf8"></path><path id="Caminho_8382" data-name="Caminho 8382" d="M649.564,607.154a.555.555,0,0,1,.405.166.544.544,0,0,1,.168.4.573.573,0,0,1-1.145,0,.542.542,0,0,1,.168-.4A.555.555,0,0,1,649.564,607.154Z" transform="translate(-541.146 -602.602)" fill="#007cf8"></path></g></g></svg>